REM DIRINDEX 1\5,1\2\6,1\2\7,1\3\8,1\3\9,1\4\10,1\4\11,1\4\12
REM DIRNAME folder01,folder02,folder03,folder04,folder05,folder06,folder07,folder08,folder09,folder10,folder11,folder12
TITLE ""
FILE "EJE_DB3000_5th_2A_45.mp3" MP3
  TRACK 01 AUDIO
    TITLE "0:"
    INDEX 01 00:00:00
  TRACK 02 AUDIO
    TITLE "10:cjc026_08082"
    INDEX 01 00:00:05
  TRACK 03 AUDIO
    TITLE "0:"
    INDEX 01 00:00:66
  TRACK 04 AUDIO
    TITLE "11:cjc026_08083"
    INDEX 01 00:01:17
  TRACK 05 AUDIO
    TITLE "0:"
    INDEX 01 00:02:08
  TRACK 06 AUDIO
    TITLE "12:cjc026_08084"
    INDEX 01 00:02:34
  TRACK 07 AUDIO
    TITLE "0:"
    INDEX 01 00:03:21
  TRACK 08 AUDIO
    TITLE "10:cjc026_08085"
    INDEX 01 00:03:47
  TRACK 09 AUDIO
    TITLE "0:"
    INDEX 01 00:04:40
  TRACK 10 AUDIO
    TITLE "11:cjc026_08086"
    INDEX 01 00:04:66
  TRACK 11 AUDIO
    TITLE "0:"
    INDEX 01 00:05:48
  TRACK 12 AUDIO
    TITLE "12:cjc026_08087"
    INDEX 01 00:06:00
  TRACK 13 AUDIO
    TITLE "0:"
    INDEX 01 00:06:69
  TRACK 14 AUDIO
    TITLE "10:cjc026_08088"
    INDEX 01 00:07:19
  TRACK 15 AUDIO
    TITLE "0:"
    INDEX 01 00:08:15
  TRACK 16 AUDIO
    TITLE "11:cjc026_08089"
    INDEX 01 00:08:38
  TRACK 17 AUDIO
    TITLE "0:"
    INDEX 01 00:09:22
  TRACK 18 AUDIO
    TITLE "12:cjc026_08090"
    INDEX 01 00:09:49
  TRACK 19 AUDIO
    TITLE "0:"
    INDEX 01 00:10:43
  TRACK 20 AUDIO
    TITLE "10:cjc026_08091"
    INDEX 01 00:10:68
  TRACK 21 AUDIO
    TITLE "0:"
    INDEX 01 00:11:60
  TRACK 22 AUDIO
    TITLE "11:cjc026_08092"
    INDEX 01 00:12:14
  TRACK 23 AUDIO
    TITLE "0:"
    INDEX 01 00:13:02
  TRACK 24 AUDIO
    TITLE "12:cjc026_08093"
    INDEX 01 00:13:30
  TRACK 25 AUDIO
    TITLE "0:"
    INDEX 01 00:14:21
  TRACK 26 AUDIO
    TITLE "10:cjc026_08094"
    INDEX 01 00:14:49
  TRACK 27 AUDIO
    TITLE "0:"
    INDEX 01 00:16:18
  TRACK 28 AUDIO
    TITLE "11:cjc026_08095"
    INDEX 01 00:16:46
  TRACK 29 AUDIO
    TITLE "0:"
    INDEX 01 00:17:53
  TRACK 30 AUDIO
    TITLE "12:cjc026_08096"
    INDEX 01 00:18:03
  TRACK 31 AUDIO
    TITLE "0:"
    INDEX 01 00:19:50
  TRACK 32 AUDIO
    TITLE "10:cjc026_08097"
    INDEX 01 00:19:73
  TRACK 33 AUDIO
    TITLE "0:"
    INDEX 01 00:20:63
  TRACK 34 AUDIO
    TITLE "11:cjc026_08098"
    INDEX 01 00:21:17
  TRACK 35 AUDIO
    TITLE "0:"
    INDEX 01 00:22:25
  TRACK 36 AUDIO
    TITLE "12:cjc026_08099"
    INDEX 01 00:22:50
  TRACK 37 AUDIO
    TITLE "0:"
    INDEX 01 00:23:40
  TRACK 38 AUDIO
    TITLE "10:cjc026_08100"
    INDEX 01 00:23:69
  TRACK 39 AUDIO
    TITLE "0:"
    INDEX 01 00:24:59
  TRACK 40 AUDIO
    TITLE "11:cjc026_08101"
    INDEX 01 00:25:11
  TRACK 41 AUDIO
    TITLE "0:"
    INDEX 01 00:26:30
  TRACK 42 AUDIO
    TITLE "12:cjc026_08102"
    INDEX 01 00:26:56
  TRACK 43 AUDIO
    TITLE "0:"
    INDEX 01 00:27:45
  TRACK 44 AUDIO
    TITLE "10:cjc026_08103"
    INDEX 01 00:27:73
  TRACK 45 AUDIO
    TITLE "0:"
    INDEX 01 00:28:66
  TRACK 46 AUDIO
    TITLE "11:cjc026_08104"
    INDEX 01 00:29:19
  TRACK 47 AUDIO
    TITLE "0:"
    INDEX 01 00:30:46
  TRACK 48 AUDIO
    TITLE "12:cjc026_08105"
    INDEX 01 00:30:73
  TRACK 49 AUDIO
    TITLE "0:"
    INDEX 01 00:31:67
  TRACK 50 AUDIO
    TITLE "10:cjc026_08106"
    INDEX 01 00:32:19
  TRACK 51 AUDIO
    TITLE "0:"
    INDEX 01 00:33:21
  TRACK 52 AUDIO
    TITLE "11:cjc026_08107"
    INDEX 01 00:33:48
  TRACK 53 AUDIO
    TITLE "0:"
    INDEX 01 00:34:42
  TRACK 54 AUDIO
    TITLE "12:cjc026_08108"
    INDEX 01 00:34:67
  TRACK 55 AUDIO
    TITLE "0:"
    INDEX 01 00:35:68
  TRACK 56 AUDIO
    TITLE "10:cjc026_08109"
    INDEX 01 00:36:21
  TRACK 57 AUDIO
    TITLE "0:"
    INDEX 01 00:37:05
  TRACK 58 AUDIO
    TITLE "11:cjc026_08110"
    INDEX 01 00:37:28
  TRACK 59 AUDIO
    TITLE "0:"
    INDEX 01 00:38:22
  TRACK 60 AUDIO
    TITLE "12:cjc026_08111"
    INDEX 01 00:38:47
  TRACK 61 AUDIO
    TITLE "0:"
    INDEX 01 00:39:31
  TRACK 62 AUDIO
    TITLE "10:cjc026_08112"
    INDEX 01 00:39:56
  TRACK 63 AUDIO
    TITLE "0:"
    INDEX 01 00:40:48
  TRACK 64 AUDIO
    TITLE "11:cjc026_08113"
    INDEX 01 00:40:73
  TRACK 65 AUDIO
    TITLE "0:"
    INDEX 01 00:42:04
  TRACK 66 AUDIO
    TITLE "12:cjc026_08114"
    INDEX 01 00:42:31
  TRACK 67 AUDIO
    TITLE "0:"
    INDEX 01 00:43:21
